<svg width="1024" height="985" viewBox="0 0 1024 985" fill="none" xmlns="http://www.w3.org/2000/svg">
<path d="M0 252.865H282.122C313.469 252.865 338.547 277.943 338.547 309.29C338.547 340.637 313.469 365.714 282.122 365.714H0C10.449 507.82 129.567 618.579 273.763 618.579H284.212C315.559 618.579 340.637 643.657 340.637 675.004C340.637 706.351 315.559 731.428 284.212 731.428H273.763C129.567 731.428 10.449 842.188 0 984.294H750.237C894.433 984.294 1013.55 873.535 1024 731.428H741.878C710.531 731.428 685.453 706.351 685.453 675.004C685.453 643.657 710.531 618.579 741.878 618.579H1024C1013.55 476.473 894.433 365.714 750.237 365.714H739.788C708.441 365.714 683.363 340.637 683.363 309.29C683.363 277.943 708.441 252.865 739.788 252.865H750.237C894.433 252.865 1013.55 142.106 1024 0H273.763C129.567 0 10.449 110.759 0 252.865Z" fill="#007BFF"/>
</svg>
